# xmcd CD database file
#
# Track frame offsets:
#	150
#	15553
#	29227
#	57466
#	72935
#	85467
#	97669
#	110469
#	123934
#	139466
#	153181
#	167436
#	183263
#	203510
#	219051
#	237078
#
# Disc length: 3329 seconds
#
# Revision: 0
# Processed by: cddbd v1.5.1PL2 Copyright (c) Steve Scherf et al.
# Submitted via: CDex 1.51
#
DISCID=ce0cff10
DTITLE=Quinteto De Hernán Oliva - El Paso Del Tigre
DYEAR=1997
DGENRE=Jazz
TTITLE0=El Paso Del Tigre
TTITLE1=Brillo
TTITLE2=Rosetta
TTITLE3=Dulce Georgia Brown
TTITLE4=Cavernismo
TTITLE5=La Banda De Alejandro
TTITLE6=El Mundo Espera La Salida Del Sol
TTITLE7=Adios, Pájaro Negro
TTITLE8=Después De Haberte Ido
TTITLE9=Muchacho Chino
TTITLE10=Minor Swing
TTITLE11=Limehouse Blues
TTITLE12=Solitude
TTITLE13=Mi Barrio Chino
TTITLE14=Pobre Mariposa
TTITLE15=Rio Swannee
EXTD=YEAR: 1997
EXTT0=
EXTT1=
EXTT2=
EXTT3=
EXTT4=
EXTT5=
EXTT6=
EXTT7=
EXTT8=
EXTT9=
EXTT10=
EXTT11=
EXTT12=
EXTT13=
EXTT14=
EXTT15=
PLAYORDER=
